<svg width="208" height="25" viewBox="0 0 208 25" fill="none" xmlns="http://www.w3.org/2000/svg">
<path d="M14.6933 0L25.351 6.15327V18.4598L14.6933 24.6131L4.03548 18.4598V6.15327L14.6933 0Z" fill="#065E7C"/>
<path d="M39.9497 20H36.953V7.82721C36.953 6.97987 37.1184 6.26686 37.449 5.68819C37.7866 5.10263 38.2585 4.66174 38.8647 4.36551C39.4778 4.0624 40.2046 3.91084 41.0451 3.91084C41.3206 3.91084 41.5858 3.93151 41.8407 3.97284C42.0956 4.00729 42.3436 4.05206 42.5847 4.10718L42.5537 6.34953C42.4229 6.31509 42.2851 6.29098 42.1404 6.2772C41.9957 6.26342 41.827 6.25653 41.6341 6.25653C41.2758 6.25653 40.9693 6.31853 40.7144 6.44253C40.4664 6.55964 40.2769 6.73531 40.1461 6.96954C40.0152 7.20376 39.9497 7.48965 39.9497 7.82721V20ZM42.1817 8.81922V10.9272H35.2893V8.81922H42.1817ZM43.2667 14.5233V14.3063C43.2667 13.4865 43.3839 12.7322 43.6181 12.0433C43.8523 11.3475 44.1933 10.7447 44.6411 10.2349C45.0889 9.72512 45.64 9.32901 46.2944 9.04656C46.9489 8.75722 47.6998 8.61255 48.5471 8.61255C49.3945 8.61255 50.1488 8.75722 50.8102 9.04656C51.4715 9.32901 52.0261 9.72512 52.4738 10.2349C52.9285 10.7447 53.273 11.3475 53.5072 12.0433C53.7414 12.7322 53.8585 13.4865 53.8585 14.3063V14.5233C53.8585 15.3362 53.7414 16.0905 53.5072 16.7863C53.273 17.4752 52.9285 18.078 52.4738 18.5947C52.0261 19.1044 51.4749 19.5006 50.8205 19.783C50.166 20.0654 49.4151 20.2067 48.5678 20.2067C47.7205 20.2067 46.9661 20.0654 46.3048 19.783C45.6503 19.5006 45.0958 19.1044 44.6411 18.5947C44.1933 18.078 43.8523 17.4752 43.6181 16.7863C43.3839 16.0905 43.2667 15.3362 43.2667 14.5233ZM46.2428 14.3063V14.5233C46.2428 14.9917 46.2841 15.4292 46.3668 15.8356C46.4494 16.2421 46.5803 16.6003 46.7594 16.9103C46.9455 17.2134 47.1866 17.4511 47.4828 17.6233C47.779 17.7955 48.1407 17.8816 48.5678 17.8816C48.9811 17.8816 49.3359 17.7955 49.6321 17.6233C49.9284 17.4511 50.166 17.2134 50.3452 16.9103C50.5243 16.6003 50.6552 16.2421 50.7378 15.8356C50.8274 15.4292 50.8722 14.9917 50.8722 14.5233V14.3063C50.8722 13.8516 50.8274 13.4245 50.7378 13.0249C50.6552 12.6185 50.5208 12.2603 50.3348 11.9503C50.1557 11.6334 49.918 11.3854 49.6218 11.2062C49.3256 11.0271 48.9674 10.9376 48.5471 10.9376C48.1269 10.9376 47.7687 11.0271 47.4725 11.2062C47.1831 11.3854 46.9455 11.6334 46.7594 11.9503C46.5803 12.2603 46.4494 12.6185 46.3668 13.0249C46.2841 13.4245 46.2428 13.8516 46.2428 14.3063ZM55.2122 14.5233V14.3063C55.2122 13.4865 55.3293 12.7322 55.5635 12.0433C55.7978 11.3475 56.1388 10.7447 56.5865 10.2349C57.0343 9.72512 57.5854 9.32901 58.2399 9.04656C58.8943 8.75722 59.6452 8.61255 60.4926 8.61255C61.3399 8.61255 62.0943 8.75722 62.7556 9.04656C63.4169 9.32901 63.9715 9.72512 64.4193 10.2349C64.874 10.7447 65.2184 11.3475 65.4526 12.0433C65.6869 12.7322 65.804 13.4865 65.804 14.3063V14.5233C65.804 15.3362 65.6869 16.0905 65.4526 16.7863C65.2184 17.4752 64.874 18.078 64.4193 18.5947C63.9715 19.1044 63.4204 19.5006 62.7659 19.783C62.1115 20.0654 61.3606 20.2067 60.5133 20.2067C59.6659 20.2067 58.9116 20.0654 58.2502 19.783C57.5958 19.5006 57.0412 19.1044 56.5865 18.5947C56.1388 18.078 55.7978 17.4752 55.5635 16.7863C55.3293 16.0905 55.2122 15.3362 55.2122 14.5233ZM58.1882 14.3063V14.5233C58.1882 14.9917 58.2296 15.4292 58.3122 15.8356C58.3949 16.2421 58.5258 16.6003 58.7049 16.9103C58.8909 17.2134 59.132 17.4511 59.4282 17.6233C59.7245 17.7955 60.0861 17.8816 60.5133 17.8816C60.9266 17.8816 61.2814 17.7955 61.5776 17.6233C61.8738 17.4511 62.1115 17.2134 62.2906 16.9103C62.4697 16.6003 62.6006 16.2421 62.6833 15.8356C62.7728 15.4292 62.8176 14.9917 62.8176 14.5233V14.3063C62.8176 13.8516 62.7728 13.4245 62.6833 13.0249C62.6006 12.6185 62.4663 12.2603 62.2803 11.9503C62.1012 11.6334 61.8635 11.3854 61.5673 11.2062C61.271 11.0271 60.9128 10.9376 60.4926 10.9376C60.0724 10.9376 59.7141 11.0271 59.4179 11.2062C59.1286 11.3854 58.8909 11.6334 58.7049 11.9503C58.5258 12.2603 58.3949 12.6185 58.3122 13.0249C58.2296 13.4245 58.1882 13.8516 58.1882 14.3063ZM74.2361 17.5613V4.12784H77.2328V20H74.5357L74.2361 17.5613ZM67.168 14.5439V14.3269C67.168 13.4727 67.2644 12.6977 67.4573 12.0019C67.6502 11.2992 67.9327 10.6965 68.3047 10.1936C68.6767 9.69068 69.1348 9.30145 69.679 9.02589C70.2232 8.75033 70.8432 8.61255 71.539 8.61255C72.1935 8.61255 72.7653 8.75033 73.2544 9.02589C73.7504 9.30145 74.1706 9.69412 74.5151 10.2039C74.8664 10.7068 75.1488 11.3027 75.3624 11.9916C75.576 12.6736 75.731 13.421 75.8274 14.2339V14.7093C75.731 15.4877 75.576 16.2111 75.3624 16.8793C75.1488 17.5475 74.8664 18.1331 74.5151 18.636C74.1706 19.132 73.7504 19.5178 73.2544 19.7933C72.7584 20.0689 72.1797 20.2067 71.5184 20.2067C70.8226 20.2067 70.2026 20.0654 69.6583 19.783C69.121 19.5006 68.6663 19.1044 68.2943 18.5947C67.9292 18.0849 67.6502 17.4855 67.4573 16.7966C67.2644 16.1077 67.168 15.3568 67.168 14.5439ZM70.144 14.3269V14.5439C70.144 15.0055 70.1785 15.4361 70.2473 15.8356C70.3231 16.2352 70.4437 16.59 70.609 16.9C70.7812 17.2031 71.0017 17.4408 71.2704 17.613C71.5459 17.7783 71.88 17.861 72.2727 17.861C72.7825 17.861 73.2027 17.7473 73.5334 17.52C73.8641 17.2858 74.1155 16.9654 74.2877 16.559C74.4668 16.1525 74.5702 15.6841 74.5977 15.1536V13.7999C74.5771 13.3659 74.5151 12.9767 74.4117 12.6323C74.3153 12.2809 74.1706 11.9813 73.9777 11.7333C73.7917 11.4852 73.5575 11.2924 73.275 11.1546C72.9995 11.0168 72.6723 10.9479 72.2934 10.9479C71.9076 10.9479 71.5769 11.0375 71.3014 11.2166C71.0258 11.3888 70.8019 11.6265 70.6297 11.9296C70.4644 12.2327 70.3403 12.5909 70.2577 13.0043C70.1819 13.4107 70.144 13.8516 70.144 14.3269ZM89.9739 20.2067C89.1059 20.2067 88.3274 20.0689 87.6385 19.7933C86.9496 19.5109 86.3641 19.1217 85.8818 18.6257C85.4065 18.1296 85.0414 17.5544 84.7865 16.9C84.5316 16.2386 84.4042 15.536 84.4042 14.7919V14.3786C84.4042 13.5313 84.5247 12.7563 84.7658 12.0536C85.0069 11.3509 85.3514 10.7412 85.7992 10.2246C86.2538 9.7079 86.805 9.31178 87.4525 9.03622C88.1001 8.75378 88.8303 8.61255 89.6432 8.61255C90.4354 8.61255 91.1381 8.74344 91.7512 9.00522C92.3643 9.267 92.8776 9.63901 93.2909 10.1212C93.7111 10.6035 94.028 11.1821 94.2416 11.8573C94.4551 12.5255 94.5619 13.2695 94.5619 14.0893V15.3293H85.6752V13.3453H91.6376V13.1179C91.6376 12.7046 91.5618 12.336 91.4102 12.0123C91.2656 11.6816 91.0451 11.4198 90.7489 11.2269C90.4527 11.034 90.0738 10.9376 89.6122 10.9376C89.2195 10.9376 88.882 11.0237 88.5995 11.1959C88.3171 11.3681 88.0863 11.6093 87.9072 11.9193C87.735 12.2293 87.6041 12.5944 87.5145 13.0146C87.4319 13.4279 87.3905 13.8826 87.3905 14.3786V14.7919C87.3905 15.2397 87.4525 15.6531 87.5765 16.032C87.7074 16.4109 87.89 16.7381 88.1242 17.0136C88.3653 17.2892 88.6546 17.5028 88.9922 17.6543C89.3366 17.8059 89.7259 17.8816 90.1599 17.8816C90.6972 17.8816 91.1967 17.7783 91.6582 17.5716C92.1267 17.3581 92.5297 17.0377 92.8672 16.6106L94.3139 18.1813C94.0797 18.5189 93.7594 18.8427 93.3529 19.1527C92.9534 19.4627 92.4711 19.7176 91.9062 19.9173C91.3413 20.1102 90.6972 20.2067 89.9739 20.2067ZM98.654 8.81922L100.504 12.2189L102.405 8.81922H105.577L102.415 14.2856L105.722 20H102.539L100.524 16.404L98.5093 20H95.3266L98.6333 14.2856L95.4713 8.81922H98.654ZM110 10.9686V24.2987H107.024V8.81922H109.783L110 10.9686ZM117.078 14.2856V14.5026C117.078 15.3155 116.982 16.0698 116.789 16.7656C116.603 17.4614 116.328 18.0676 115.962 18.5843C115.597 19.0941 115.143 19.4937 114.598 19.783C114.061 20.0654 113.441 20.2067 112.738 20.2067C112.056 20.2067 111.464 20.0689 110.961 19.7933C110.458 19.5178 110.035 19.132 109.69 18.636C109.353 18.1331 109.08 17.551 108.874 16.8896C108.667 16.2283 108.509 15.5187 108.398 14.7609V14.1926C108.509 13.3797 108.667 12.6357 108.874 11.9606C109.08 11.2786 109.353 10.6896 109.69 10.1936C110.035 9.69068 110.455 9.30145 110.951 9.02589C111.454 8.75033 112.043 8.61255 112.718 8.61255C113.427 8.61255 114.051 8.74689 114.588 9.01556C115.132 9.28423 115.587 9.67001 115.952 10.1729C116.324 10.6758 116.603 11.2751 116.789 11.9709C116.982 12.6667 117.078 13.4383 117.078 14.2856ZM114.092 14.5026V14.2856C114.092 13.8103 114.051 13.3728 113.968 12.9733C113.892 12.5668 113.768 12.212 113.596 11.9089C113.431 11.6058 113.21 11.3716 112.935 11.2062C112.666 11.034 112.339 10.9479 111.953 10.9479C111.547 10.9479 111.199 11.0134 110.909 11.1442C110.627 11.2751 110.396 11.4646 110.217 11.7126C110.038 11.9606 109.904 12.2568 109.814 12.6013C109.725 12.9457 109.669 13.3349 109.649 13.7689V15.2053C109.683 15.7151 109.78 16.1732 109.938 16.5796C110.097 16.9792 110.341 17.2961 110.672 17.5303C111.002 17.7645 111.436 17.8816 111.974 17.8816C112.366 17.8816 112.697 17.7955 112.966 17.6233C113.234 17.4442 113.451 17.1996 113.617 16.8896C113.789 16.5796 113.91 16.2214 113.978 15.815C114.054 15.4085 114.092 14.9711 114.092 14.5026ZM122.07 4.12784V20H119.083V4.12784H122.07ZM124.054 14.5233V14.3063C124.054 13.4865 124.171 12.7322 124.405 12.0433C124.639 11.3475 124.98 10.7447 125.428 10.2349C125.876 9.72512 126.427 9.32901 127.081 9.04656C127.736 8.75722 128.487 8.61255 129.334 8.61255C130.181 8.61255 130.936 8.75722 131.597 9.04656C132.258 9.32901 132.813 9.72512 133.261 10.2349C133.715 10.7447 134.06 11.3475 134.294 12.0433C134.528 12.7322 134.645 13.4865 134.645 14.3063V14.5233C134.645 15.3362 134.528 16.0905 134.294 16.7863C134.06 17.4752 133.715 18.078 133.261 18.5947C132.813 19.1044 132.262 19.5006 131.607 19.783C130.953 20.0654 130.202 20.2067 129.355 20.2067C128.507 20.2067 127.753 20.0654 127.092 19.783C126.437 19.5006 125.883 19.1044 125.428 18.5947C124.98 18.078 124.639 17.4752 124.405 16.7863C124.171 16.0905 124.054 15.3362 124.054 14.5233ZM127.03 14.3063V14.5233C127.03 14.9917 127.071 15.4292 127.154 15.8356C127.236 16.2421 127.367 16.6003 127.546 16.9103C127.732 17.2134 127.973 17.4511 128.27 17.6233C128.566 17.7955 128.927 17.8816 129.355 17.8816C129.768 17.8816 130.123 17.7955 130.419 17.6233C130.715 17.4511 130.953 17.2134 131.132 16.9103C131.311 16.6003 131.442 16.2421 131.525 15.8356C131.614 15.4292 131.659 14.9917 131.659 14.5233V14.3063C131.659 13.8516 131.614 13.4245 131.525 13.0249C131.442 12.6185 131.308 12.2603 131.122 11.9503C130.943 11.6334 130.705 11.3854 130.409 11.2062C130.112 11.0271 129.754 10.9376 129.334 10.9376C128.914 10.9376 128.555 11.0271 128.259 11.2062C127.97 11.3854 127.732 11.6334 127.546 11.9503C127.367 12.2603 127.236 12.6185 127.154 13.0249C127.071 13.4245 127.03 13.8516 127.03 14.3063ZM139.45 11.2579V20H136.474V8.81922H139.275L139.45 11.2579ZM142.819 8.74689L142.767 11.5059C142.623 11.4852 142.447 11.468 142.24 11.4542C142.041 11.4336 141.858 11.4232 141.693 11.4232C141.272 11.4232 140.907 11.4784 140.597 11.5886C140.294 11.6919 140.039 11.8469 139.833 12.0536C139.633 12.2603 139.481 12.5117 139.378 12.8079C139.282 13.1042 139.226 13.4417 139.213 13.8206L138.613 13.6346C138.613 12.9113 138.686 12.2465 138.83 11.6403C138.975 11.0271 139.185 10.4932 139.461 10.0386C139.743 9.5839 140.088 9.23256 140.494 8.98456C140.9 8.73656 141.365 8.61255 141.889 8.61255C142.054 8.61255 142.223 8.62633 142.395 8.65389C142.568 8.67455 142.709 8.70555 142.819 8.74689ZM149.164 20.2067C148.296 20.2067 147.517 20.0689 146.828 19.7933C146.14 19.5109 145.554 19.1217 145.072 18.6257C144.596 18.1296 144.231 17.5544 143.976 16.9C143.722 16.2386 143.594 15.536 143.594 14.7919V14.3786C143.594 13.5313 143.715 12.7563 143.956 12.0536C144.197 11.3509 144.541 10.7412 144.989 10.2246C145.444 9.7079 145.995 9.31178 146.642 9.03622C147.29 8.75378 148.02 8.61255 148.833 8.61255C149.625 8.61255 150.328 8.74344 150.941 9.00522C151.554 9.267 152.067 9.63901 152.481 10.1212C152.901 10.6035 153.218 11.1821 153.432 11.8573C153.645 12.5255 153.752 13.2695 153.752 14.0893V15.3293H144.865V13.3453H150.827V13.1179C150.827 12.7046 150.752 12.336 150.6 12.0123C150.455 11.6816 150.235 11.4198 149.939 11.2269C149.643 11.034 149.264 10.9376 148.802 10.9376C148.409 10.9376 148.072 11.0237 147.789 11.1959C147.507 11.3681 147.276 11.6093 147.097 11.9193C146.925 12.2293 146.794 12.5944 146.704 13.0146C146.622 13.4279 146.58 13.8826 146.58 14.3786V14.7919C146.58 15.2397 146.642 15.6531 146.766 16.032C146.897 16.4109 147.08 16.7381 147.314 17.0136C147.555 17.2892 147.845 17.5028 148.182 17.6543C148.527 17.8059 148.916 17.8816 149.35 17.8816C149.887 17.8816 150.387 17.7783 150.848 17.5716C151.317 17.3581 151.72 17.0377 152.057 16.6106L153.504 18.1813C153.27 18.5189 152.949 18.8427 152.543 19.1527C152.143 19.4627 151.661 19.7176 151.096 19.9173C150.531 20.1102 149.887 20.2067 149.164 20.2067ZM158.423 11.2579V20H155.447V8.81922H158.247L158.423 11.2579ZM161.791 8.74689L161.74 11.5059C161.595 11.4852 161.419 11.468 161.213 11.4542C161.013 11.4336 160.83 11.4232 160.665 11.4232C160.245 11.4232 159.88 11.4784 159.57 11.5886C159.266 11.6919 159.012 11.8469 158.805 12.0536C158.605 12.2603 158.454 12.5117 158.35 12.8079C158.254 13.1042 158.199 13.4417 158.185 13.8206L157.586 13.6346C157.586 12.9113 157.658 12.2465 157.803 11.6403C157.947 11.0271 158.157 10.4932 158.433 10.0386C158.715 9.5839 159.06 9.23256 159.466 8.98456C159.873 8.73656 160.338 8.61255 160.861 8.61255C161.027 8.61255 161.195 8.62633 161.368 8.65389C161.54 8.67455 161.681 8.70555 161.791 8.74689Z" fill="white"/>
<path d="M175.564 15.916V12.6523C175.564 12.4023 175.514 12.1855 175.412 12.002C175.314 11.8145 175.166 11.6699 174.967 11.5684C174.768 11.4668 174.521 11.416 174.229 11.416C173.955 11.416 173.715 11.4629 173.508 11.5566C173.305 11.6504 173.145 11.7734 173.027 11.9258C172.914 12.0781 172.857 12.2422 172.857 12.418H171.773C171.773 12.1914 171.832 11.9668 171.949 11.7441C172.066 11.5215 172.234 11.3203 172.453 11.1406C172.676 10.957 172.941 10.8125 173.25 10.707C173.562 10.5977 173.91 10.543 174.293 10.543C174.754 10.543 175.16 10.6211 175.512 10.7773C175.867 10.9336 176.145 11.1699 176.344 11.4863C176.547 11.7988 176.648 12.1914 176.648 12.6641V15.6172C176.648 15.8281 176.666 16.0527 176.701 16.291C176.74 16.5293 176.797 16.7344 176.871 16.9062V17H175.74C175.686 16.875 175.643 16.709 175.611 16.502C175.58 16.291 175.564 16.0957 175.564 15.916ZM175.752 13.1562L175.764 13.918H174.668C174.359 13.918 174.084 13.9434 173.842 13.9941C173.6 14.041 173.396 14.1133 173.232 14.2109C173.068 14.3086 172.943 14.4316 172.857 14.5801C172.771 14.7246 172.729 14.8945 172.729 15.0898C172.729 15.2891 172.773 15.4707 172.863 15.6348C172.953 15.7988 173.088 15.9297 173.268 16.0273C173.451 16.1211 173.676 16.168 173.941 16.168C174.273 16.168 174.566 16.0977 174.82 15.957C175.074 15.8164 175.275 15.6445 175.424 15.4414C175.576 15.2383 175.658 15.041 175.67 14.8496L176.133 15.3711C176.105 15.5352 176.031 15.7168 175.91 15.916C175.789 16.1152 175.627 16.3066 175.424 16.4902C175.225 16.6699 174.986 16.8203 174.709 16.9414C174.436 17.0586 174.127 17.1172 173.783 17.1172C173.354 17.1172 172.977 17.0332 172.652 16.8652C172.332 16.6973 172.082 16.4727 171.902 16.1914C171.727 15.9062 171.639 15.5879 171.639 15.2363C171.639 14.8965 171.705 14.5977 171.838 14.3398C171.971 14.0781 172.162 13.8613 172.412 13.6895C172.662 13.5137 172.963 13.3809 173.314 13.291C173.666 13.2012 174.059 13.1562 174.492 13.1562H175.752ZM182.35 15.7695V8H183.439V17H182.443L182.35 15.7695ZM178.084 13.9004V13.7773C178.084 13.293 178.143 12.8535 178.26 12.459C178.381 12.0605 178.551 11.7188 178.77 11.4336C178.992 11.1484 179.256 10.9297 179.561 10.7773C179.869 10.6211 180.213 10.543 180.592 10.543C180.99 10.543 181.338 10.6133 181.635 10.7539C181.936 10.8906 182.189 11.0918 182.396 11.3574C182.607 11.6191 182.773 11.9355 182.895 12.3066C183.016 12.6777 183.1 13.0977 183.146 13.5664V14.1055C183.104 14.5703 183.02 14.9883 182.895 15.3594C182.773 15.7305 182.607 16.0469 182.396 16.3086C182.189 16.5703 181.936 16.7715 181.635 16.9121C181.334 17.0488 180.982 17.1172 180.58 17.1172C180.209 17.1172 179.869 17.0371 179.561 16.877C179.256 16.7168 178.992 16.4922 178.77 16.2031C178.551 15.9141 178.381 15.5742 178.26 15.1836C178.143 14.7891 178.084 14.3613 178.084 13.9004ZM179.174 13.7773V13.9004C179.174 14.2168 179.205 14.5137 179.268 14.791C179.334 15.0684 179.436 15.3125 179.572 15.5234C179.709 15.7344 179.883 15.9004 180.094 16.0215C180.305 16.1387 180.557 16.1973 180.85 16.1973C181.209 16.1973 181.504 16.1211 181.734 15.9688C181.969 15.8164 182.156 15.6152 182.297 15.3652C182.438 15.1152 182.547 14.8438 182.625 14.5508V13.1387C182.578 12.9238 182.51 12.7168 182.42 12.5176C182.334 12.3145 182.221 12.1348 182.08 11.9785C181.943 11.8184 181.773 11.6914 181.57 11.5977C181.371 11.5039 181.135 11.457 180.861 11.457C180.564 11.457 180.309 11.5195 180.094 11.6445C179.883 11.7656 179.709 11.9336 179.572 12.1484C179.436 12.3594 179.334 12.6055 179.268 12.8867C179.205 13.1641 179.174 13.4609 179.174 13.7773ZM186.205 11.9199V17H185.115V10.6602H186.146L186.205 11.9199ZM185.982 13.5898L185.479 13.5723C185.482 13.1387 185.539 12.7383 185.648 12.3711C185.758 12 185.92 11.6777 186.135 11.4043C186.35 11.1309 186.617 10.9199 186.938 10.7715C187.258 10.6191 187.629 10.543 188.051 10.543C188.348 10.543 188.621 10.5859 188.871 10.6719C189.121 10.7539 189.338 10.8848 189.521 11.0645C189.705 11.2441 189.848 11.4746 189.949 11.7559C190.051 12.0371 190.102 12.377 190.102 12.7754V17H189.018V12.8281C189.018 12.4961 188.961 12.2305 188.848 12.0312C188.738 11.832 188.582 11.6875 188.379 11.5977C188.176 11.5039 187.938 11.457 187.664 11.457C187.344 11.457 187.076 11.5137 186.861 11.627C186.646 11.7402 186.475 11.8965 186.346 12.0957C186.217 12.2949 186.123 12.5234 186.064 12.7812C186.01 13.0352 185.982 13.3047 185.982 13.5898ZM190.09 12.9922L189.363 13.2148C189.367 12.8672 189.424 12.5332 189.533 12.2129C189.646 11.8926 189.809 11.6074 190.02 11.3574C190.234 11.1074 190.498 10.9102 190.811 10.7656C191.123 10.6172 191.48 10.543 191.883 10.543C192.223 10.543 192.523 10.5879 192.785 10.6777C193.051 10.7676 193.273 10.9062 193.453 11.0938C193.637 11.2773 193.775 11.5137 193.869 11.8027C193.963 12.0918 194.01 12.4355 194.01 12.834V17H192.92V12.8223C192.92 12.4668 192.863 12.1914 192.75 11.9961C192.641 11.7969 192.484 11.6582 192.281 11.5801C192.082 11.498 191.844 11.457 191.566 11.457C191.328 11.457 191.117 11.498 190.934 11.5801C190.75 11.6621 190.596 11.7754 190.471 11.9199C190.346 12.0605 190.25 12.2227 190.184 12.4062C190.121 12.5898 190.09 12.7852 190.09 12.9922ZM196.828 10.6602V17H195.738V10.6602H196.828ZM195.656 8.97852C195.656 8.80273 195.709 8.6543 195.814 8.5332C195.924 8.41211 196.084 8.35156 196.295 8.35156C196.502 8.35156 196.66 8.41211 196.77 8.5332C196.883 8.6543 196.939 8.80273 196.939 8.97852C196.939 9.14648 196.883 9.29102 196.77 9.41211C196.66 9.5293 196.502 9.58789 196.295 9.58789C196.084 9.58789 195.924 9.5293 195.814 9.41211C195.709 9.29102 195.656 9.14648 195.656 8.97852ZM199.652 12.0137V17H198.568V10.6602H199.594L199.652 12.0137ZM199.395 13.5898L198.943 13.5723C198.947 13.1387 199.012 12.7383 199.137 12.3711C199.262 12 199.438 11.6777 199.664 11.4043C199.891 11.1309 200.16 10.9199 200.473 10.7715C200.789 10.6191 201.139 10.543 201.521 10.543C201.834 10.543 202.115 10.5859 202.365 10.6719C202.615 10.7539 202.828 10.8867 203.004 11.0703C203.184 11.2539 203.32 11.4922 203.414 11.7852C203.508 12.0742 203.555 12.4277 203.555 12.8457V17H202.465V12.834C202.465 12.502 202.416 12.2363 202.318 12.0371C202.221 11.834 202.078 11.6875 201.891 11.5977C201.703 11.5039 201.473 11.457 201.199 11.457C200.93 11.457 200.684 11.5137 200.461 11.627C200.242 11.7402 200.053 11.8965 199.893 12.0957C199.736 12.2949 199.613 12.5234 199.523 12.7812C199.438 13.0352 199.395 13.3047 199.395 13.5898Z" fill="#82F3FF"/>
</svg>
